<svg width="21" height="25" viewBox="0 0 21 25" fill="none" xmlns="http://www.w3.org/2000/svg">
<path d="M5.70201 24.1791C8.83593 24.1791 11.3713 21.6328 11.3713 18.4989C11.3713 16.8449 10.6967 15.3976 9.39089 14.2223C9.16236 14.0048 9.10795 13.8851 9.10795 13.5586L9.11891 3.72154C9.11891 1.51255 7.726 0 5.70201 0C3.65625 0 2.25251 1.51255 2.25251 3.72154L2.26339 13.5586C2.26339 13.8851 2.21986 14.0048 1.98047 14.2223C0.685548 15.3976 0 16.8449 0 18.4989C0 21.6328 2.54631 24.1791 5.70201 24.1791ZM5.70201 22.6013C3.42773 22.6013 1.59961 20.7514 1.59961 18.4989C1.59961 17.1387 2.24163 15.909 3.39509 15.1364C3.73242 14.9079 3.863 14.7012 3.863 14.255V3.78683C3.863 2.48102 4.61384 1.5996 5.70201 1.5996C6.76841 1.5996 7.51925 2.48102 7.51925 3.78683V14.255C7.51925 14.7012 7.64983 14.9079 7.98716 15.1364C9.14064 15.909 9.78265 17.1387 9.78265 18.4989C9.78265 20.7514 7.94363 22.6013 5.70201 22.6013Z" fill="white"/>
<path d="M5.69196 21.1316C7.15011 21.1316 8.32533 19.9456 8.32533 18.4874C8.32533 17.4645 7.7486 16.6267 6.91071 16.1696C6.56249 15.9847 6.4428 15.8541 6.4428 15.3208V4.71122C6.4428 4.18889 6.10547 3.85156 5.69196 3.85156C5.26757 3.85156 4.94112 4.18889 4.94112 4.71122V15.3208C4.94112 15.8541 4.82142 15.9847 4.47321 16.1696C3.63532 16.6267 3.05859 17.4645 3.05859 18.4874C3.05859 19.9564 4.23381 21.1316 5.69196 21.1316Z" fill="white"/>
<path d="M20.3722 11.9389L19.1066 11.213L20.2326 10.5616C20.4745 10.422 20.5676 10.1428 20.4374 9.91015C20.2978 9.65889 20.0092 9.62164 19.7487 9.77054L18.1667 10.6733L15.3934 9.10053L18.1945 7.51849L19.7766 8.43049C20.0278 8.57939 20.307 8.53286 20.4652 8.2909C20.5863 8.04894 20.4932 7.76976 20.2605 7.63948L19.1345 6.98805L20.3815 6.28079C20.67 6.11328 20.7723 5.82479 20.6141 5.55492C20.4745 5.29435 20.1581 5.23851 19.9069 5.38741L18.6412 6.12259V4.83835C18.6412 4.54986 18.4458 4.33582 18.1852 4.33582C17.8874 4.33582 17.7107 4.54986 17.7107 4.86627L17.7013 6.67165L14.9282 8.30021L14.956 5.06169L16.5288 4.1497C16.7893 3.9915 16.8917 3.73093 16.7521 3.47967C16.6126 3.24701 16.3334 3.19118 16.0914 3.33077L14.9653 3.98219L14.9746 2.56767C14.9746 2.25126 14.7793 2 14.4721 2C14.1557 2 13.9696 2.25126 13.9696 2.56767L13.9789 3.98219L12.8529 3.33077C12.6109 3.19118 12.3224 3.24701 12.1921 3.47967C12.0526 3.73093 12.155 3.9915 12.4155 4.1497L13.9882 5.06169L14.0161 8.30021L11.2336 6.67165L11.2243 4.86627C11.2243 4.54986 11.0568 4.33582 10.759 4.33582C10.4984 4.33582 10.303 4.54986 10.303 4.83835V6.12259L9.03739 5.38741C8.78613 5.23851 8.46972 5.29435 8.33013 5.55492C8.17193 5.82479 8.2743 6.11328 8.56278 6.28079L9.80979 6.98805L8.68377 7.63948C8.45111 7.76976 8.34874 8.04894 8.47903 8.2909C8.63723 8.53286 8.91641 8.57939 9.16768 8.43049L10.7497 7.51849L13.5416 9.10053L10.7776 10.6733L9.1956 9.77054C8.93502 9.62164 8.64654 9.65889 8.50695 9.91015C8.37667 10.1428 8.46972 10.422 8.71168 10.5616L9.83771 11.213L8.57209 11.9389C8.29291 12.0878 8.17193 12.3856 8.33013 12.6554C8.47903 12.9253 8.79543 12.9626 9.07461 12.8043L10.3216 12.0692L10.3309 13.3627C10.3309 13.6233 10.5264 13.856 10.7869 13.856C11.0754 13.8466 11.2523 13.6233 11.2523 13.3348V11.5201L14.0161 9.90086L13.9882 13.1208L12.4248 14.0327C12.1642 14.1909 12.0526 14.4515 12.2015 14.7028C12.3317 14.9354 12.6202 14.9912 12.8622 14.8517L13.9789 14.2096L13.9696 15.6334C13.9696 15.9498 14.1557 16.2011 14.4721 16.2011C14.7793 16.2011 14.9746 15.9498 14.9746 15.6334L14.9653 14.2096L16.0821 14.8517C16.3241 14.9912 16.6032 14.9354 16.7428 14.7028C16.8917 14.4515 16.7801 14.1909 16.5195 14.0327L14.956 13.1208L14.9282 9.90086L17.6827 11.5201V13.3348C17.6827 13.6233 17.8689 13.8466 18.1574 13.856C18.4179 13.856 18.6133 13.6233 18.6133 13.3627L18.6226 12.0692L19.8696 12.8043C20.1489 12.9626 20.4559 12.9253 20.6141 12.6554C20.7723 12.3856 20.6514 12.0878 20.3722 11.9389Z" fill="white"/>
</svg>
